<?xml version="1.0" ?><svg id="Layer_1" style="enable-background:new 0 0 30 30;" version="1.1" viewBox="0 0 30 30" xml:space="preserve" xmlns="http://www.w3.org/2000/svg" xmlns:xlink="http://www.w3.org/1999/xlink"><style type="text/css">
	.st0{fill:#77C4D3;}
	.st1{fill:#B5E06C;}
	.st2{fill:#DF4D60;}
</style><g><path class="st0" d="M12.875,7.103c0,0,1.708-1.938,10.5,0.688L25.5,8.332c0,0-7.625,3.625-10.5,3.333   C15,11.665,10.084,10.498,12.875,7.103z"/><path class="st0" d="M3.781,5.561l2.844-3.062c0,0,1.969-1.875,4.156,0.781l2.156,2.094l1.344,0.594v0.344l-1.875,1.156   l-0.688,1.938l1.875,1.844l2.5,0.417l2.594-0.76l1.625-0.281l1.438,1.469l6.094,1.438l1.313,0.469c0,0-4.625,0.469-5.25,0.281   l-1.094-0.156l3.969,2.781l1.563,1.438l-0.313,2.563l-2.844-2.031l-1.969-1.906l-1.25-1.281l-6-1.563L15.156,15l-1,0.842   l-0.875-0.281l0.313-0.813l0.125-0.469l-1.438-0.375l-2.219-1.281l-0.969-1.406L8.031,9.686c0,0-1.469-2.844-1.875-3.781L3.5,5.811   L3.781,5.561z"/><g><path class="st1" d="M21.656,20.248c0,0,1.75,2.375-6.656,7.406c0,0-3.062-5.531,5.688-7.75L21.656,20.248z"/><path class="st1" d="M7.6,19.964c0,0-2.662-1.271-6.02,7.933c0,0,6.009,1.965,6.54-7.046L7.6,19.964z"/><path class="st1" d="M7.042,16.248c0,0,1.667-2.167-4.291-7.201c0,0-1.925,3.55,3.583,7.493L7.042,16.248z"/><polygon class="st2" points="4.021,5.311 5.479,4.332 5.938,5.832 3.917,5.769   "/><circle cx="7.891" cy="3.923" r="0.496"/><path d="M29.662,24.858l-7.003-6.539c-0.07-0.065-0.149-0.088-0.263-0.101l-6.335,0.118c0.003-0.029,0.009-0.057,0.005-0.087    l-0.218-1.569c-0.014-0.103-0.07-0.194-0.154-0.254s-0.189-0.081-0.291-0.063l-0.673,0.136c-0.458,0.117-0.879,0.155-1.157,0.153    l1.717-1.032c0.04-0.023,0.074-0.054,0.103-0.09l0.771-0.986l6.02,1.626c0.522,0.676,3.412,4.329,5.592,5.401    c0.059,0.035,0.126,0.056,0.196,0.056c0.01,0,0.019,0,0.028-0.001c0.358-0.028,0.358-0.028,0.846-3.046    c0.021-0.134-0.031-0.27-0.137-0.354l-4.453-3.529c1.668,0.295,4.193,0.52,5.392-0.489c0.11-0.093,0.158-0.241,0.122-0.381    s-0.149-0.246-0.29-0.274c-0.02-0.004-1.961-0.39-7.504-1.65c-0.163-0.18-0.579-0.624-1.226-1.25    c2.334-0.871,4.554-1.834,4.998-2.029c0.148-0.065,0.238-0.218,0.223-0.379c-0.016-0.161-0.133-0.294-0.291-0.33    c-0.322-0.072-7.906-1.766-9.887-1.958c-0.324-0.032-0.638-0.024-0.945,0.004c-0.849-0.516-1.678-0.945-2.464-1.27    c-0.346-0.614-1.944-3.236-4.071-3.289C7.03,1.382,5.849,2.262,4.8,4.049C4.697,4.216,3.906,4.967,3.233,5.567    c-0.112,0.1-0.154,0.256-0.106,0.399C3.175,6.108,3.302,6.208,3.452,6.22l2.451,0.202c0.446,1.308,2.719,7.258,7.497,8.21    c-0.335,0.735-1.217,2.204-2.928,2.095c-0.174-0.026-0.339,0.104-0.386,0.275l-0.397,1.453l-0.318,0.006    c-0.021-0.002-0.037-0.001-0.058,0.001l-1.729,0.032c-0.115-0.328-0.353-1.014-0.594-1.741c0.85-0.639,0.813-2.33-0.131-3.97    c-0.896-1.558-4.215-4.127-4.356-4.236C2.382,8.455,2.217,8.445,2.087,8.52C1.956,8.596,1.883,8.743,1.902,8.894    c0.023,0.176,0.573,4.338,1.469,5.896c0.789,1.372,1.931,2.226,2.857,2.226c0.019,0,0.037-0.006,0.056-0.007    c0.194,0.583,0.383,1.134,0.511,1.501l-1.358,0.025l-4.549-5.75c-0.128-0.162-0.364-0.191-0.527-0.061    c-0.162,0.128-0.189,0.364-0.061,0.527l4.195,5.302l-0.876,0.016c-0.002,0-0.004,0.001-0.006,0.001    c-0.028,0.001-0.056,0.011-0.084,0.019c-0.022,0.006-0.044,0.009-0.064,0.018c-0.003,0.001-0.006,0.001-0.009,0.003l-3.032,1.548    c-0.185,0.094-0.258,0.32-0.164,0.505c0.066,0.13,0.198,0.204,0.334,0.204c0.057,0,0.115-0.013,0.17-0.041l2.955-1.508l4.7-0.088    c-0.116,0.117-0.245,0.247-0.38,0.384c-0.321-0.13-0.893-0.279-1.585-0.085c-1.033,0.292-1.93,1.225-2.668,2.771    c-0.135,0.282-0.306,0.667-0.5,1.104c-0.525,1.181-1.754,3.947-2.222,4.136c-0.171,0.015-0.311,0.144-0.339,0.313    s0.064,0.337,0.222,0.405c0.052,0.022,0.807,0.339,1.831,0.339c0.703,0,1.533-0.149,2.35-0.645    c1.904-1.154,3.027-3.752,3.345-7.711c0.456-0.46,0.836-0.845,1.02-1.032l12.028-0.224c-0.073,0.094-0.156,0.202-0.243,0.315    c-0.028,0.001-0.055-0.007-0.083,0c-3.912,1.078-6.289,2.699-7.063,4.817c-0.806,2.205,0.455,4.082,0.509,4.16    c0.073,0.107,0.195,0.174,0.319,0.174c0.041,0,0.081-0.008,0.121-0.022c0.161-0.06,0.261-0.21,0.242-0.381    c0.095-0.519,2.569-2.258,3.625-3c0.393-0.276,0.739-0.521,0.991-0.708c1.375-1.022,2.116-2.084,2.203-3.153    c0.049-0.608-0.129-1.08-0.3-1.388c0.236-0.308,0.432-0.56,0.547-0.708l6.763,6.315c0.072,0.067,0.164,0.101,0.256,0.101    c0.101,0,0.2-0.04,0.274-0.119C29.822,25.237,29.814,24.999,29.662,24.858z M6.723,15.934c-0.16-0.504-0.298-0.964-0.365-1.256    c-0.097-0.416-0.286-0.597-0.548-0.848c-0.186-0.178-0.44-0.422-0.798-0.873c-0.128-0.163-0.363-0.19-0.527-0.06    c-0.162,0.129-0.189,0.365-0.06,0.527c0.39,0.49,0.665,0.754,0.866,0.947c0.24,0.23,0.292,0.285,0.336,0.477    c0.076,0.329,0.231,0.844,0.408,1.4c-0.581-0.113-1.392-0.749-2.014-1.831C3.443,13.41,3,11.056,2.786,9.736    c1.033,0.848,2.844,2.415,3.422,3.422C6.879,14.323,6.988,15.412,6.723,15.934z M4.747,27.306    c-1.062,0.647-2.181,0.582-2.859,0.445c0.532-0.668,1.167-1.979,2.083-4.044c0.191-0.429,0.359-0.808,0.492-1.086    c0.628-1.315,1.381-2.135,2.18-2.367c0.312-0.092,0.583-0.08,0.797-0.039c-0.763,0.765-1.594,1.59-2.023,1.987    c-0.356,0.33-0.425,0.607-0.531,1.028c-0.088,0.355-0.223,0.892-0.655,1.875c-0.503,1.154-0.839,1.411-1.032,1.424    c-0.207,0.013-0.364,0.19-0.351,0.397c0.012,0.198,0.177,0.352,0.374,0.352c0.008,0,0.016,0,0.024-0.001    c0.88-0.055,1.416-1.282,1.703-1.941c0.427-0.97,0.57-1.544,0.666-1.923c0.092-0.371,0.12-0.482,0.313-0.66    c0.377-0.349,1.041-1.005,1.704-1.667C7.249,24.268,6.286,26.368,4.747,27.306z M11.858,18.415l-1.387,0.026l0.262-0.959    c0.504-0.012,0.95-0.138,1.345-0.331l-0.221,1.245C11.856,18.402,11.858,18.409,11.858,18.415z M15.29,6.683    c0.141,0,0.285,0.007,0.43,0.021c1.485,0.145,6.409,1.201,8.658,1.693c-2.784,1.174-7.758,3.114-9.115,2.996    c-1.771-0.173-3.111-1.365-2.985-2.657C12.393,7.549,13.704,6.683,15.29,6.683z M5.273,4.651l0.36,0.996L4.373,5.543    C4.7,5.239,5.056,4.896,5.273,4.651z M6.55,5.987c-0.001-0.003,0-0.007-0.001-0.01L5.811,3.935    C5.805,3.919,5.793,3.907,5.785,3.892c0.799-1.169,1.632-1.729,2.506-1.74c1.918,0.046,3.479,2.98,3.494,3.01    c0.041,0.079,0.109,0.141,0.192,0.174c0.565,0.227,1.16,0.529,1.766,0.864c-1.217,0.425-2.102,1.33-2.212,2.462    c-0.166,1.704,1.476,3.264,3.659,3.476c0.058,0.006,0.12,0.009,0.187,0.009c0.941,0,2.743-0.545,4.589-1.207    c1.004,0.955,1.521,1.543,1.526,1.55c0.053,0.06,0.123,0.102,0.2,0.119c3.361,0.764,5.422,1.212,6.543,1.451    c-1.642,0.392-4.306-0.139-5.385-0.439c-0.174-0.048-0.354,0.032-0.435,0.191c-0.081,0.159-0.039,0.353,0.101,0.464l5.554,4.401    c-0.124,0.756-0.259,1.537-0.349,2.007c-2.162-1.327-4.989-5.03-5.02-5.07c-0.051-0.066-0.121-0.113-0.201-0.135l-6.382-1.724    c-0.146-0.04-0.3,0.013-0.393,0.131l-0.881,1.127l-1.205,0.724c0.311-0.459,0.527-0.927,0.638-1.292    c0.032-0.106,0.016-0.221-0.044-0.313c-0.06-0.093-0.158-0.154-0.268-0.168C8.949,13.337,6.656,6.32,6.55,5.987z M12.618,18.401    l0.191-1.075c0.427,0.088,1.138,0.148,2.089-0.095l0.264-0.053l0.163,1.172L12.618,18.401z M19.49,23.739    c-0.248,0.185-0.589,0.425-0.976,0.696c-1.845,1.297-3.007,2.172-3.56,2.823c-0.265-0.641-0.546-1.726-0.116-2.892    c0.633-1.718,2.555-3.084,5.687-4.077c-0.562,0.748-1.147,1.552-1.448,2.039c-0.138,0.224-0.241,0.272-0.587,0.435    c-0.354,0.167-0.89,0.418-1.823,1.069c-0.528,0.366-1.627,1.128-1.511,2.002c0.025,0.188,0.186,0.325,0.371,0.325    c0.017,0,0.033-0.001,0.05-0.003c0.206-0.027,0.35-0.216,0.322-0.422c-0.025-0.191,0.161-0.569,1.262-1.332    c0.816-0.57,1.316-0.805,1.647-0.961c0.393-0.185,0.652-0.307,0.907-0.72c0.319-0.517,0.998-1.439,1.605-2.243    c0.057,0.183,0.093,0.404,0.07,0.663C21.318,21.971,20.66,22.869,19.49,23.739z"/></g></g></svg>