<?xml version="1.0" ?><svg height="48" id="svg8" version="1.1" viewBox="0 0 12.7 12.7" width="48" xmlns="http://www.w3.org/2000/svg" xmlns:cc="http://creativecommons.org/ns#" xmlns:dc="http://purl.org/dc/elements/1.1/" xmlns:inkscape="http://www.inkscape.org/namespaces/inkscape" xmlns:rdf="http://www.w3.org/1999/02/22-rdf-syntax-ns#" xmlns:sodipodi="http://sodipodi.sourceforge.net/DTD/sodipodi-0.dtd" xmlns:svg="http://www.w3.org/2000/svg"><defs id="defs2"/><g id="layer1" transform="translate(0,-284.3)"><g id="g5973" style="stroke-width:3.77952766" transform="matrix(0.26458333,0,0,0.26458333,93.208303,177.43038)"><g id="g5444-6-4" style="stroke-width:3.77952766" transform="translate(-344.73692,339.64685)"><g id="g5435-1-4" style="stroke-width:3.77952766" transform="translate(-22.574895,24.07123)"><path d="M 37.849827,49.290973 A 14.907706,14.907706 0 0 0 22.942369,64.198431 14.907706,14.907706 0 0 0 37.849827,79.106238 14.907706,14.907706 0 0 0 52.675408,65.737637 9.427799,9.427799 0 0 0 55.114555,59.425804 9.427799,9.427799 0 0 0 45.68687,49.997769 9.427799,9.427799 0 0 0 43.254371,50.321426 14.907706,14.907706 0 0 0 37.849827,49.290973 Z" id="path4506-0-3" style="opacity:1;vector-effect:none;fill:#ffffff;fill-opacity:1;stroke:none;stroke-width:11.33858299;stroke-linecap:round;stroke-linejoin:round;stroke-miterlimit:4;stroke-dasharray:none;stroke-dashoffset:56.69291306;stroke-opacity:1;paint-order:normal"/><circle cx="39.943428" cy="63.326256" id="path4525-6-0" r="6.7849388" style="opacity:1;vector-effect:none;fill:#ffd100;fill-opacity:1;stroke:none;stroke-width:11.33858204;stroke-linecap:round;stroke-linejoin:round;stroke-miterlimit:4;stroke-dasharray:none;stroke-dashoffset:56.69291306;stroke-opacity:1;paint-order:normal"/><path d="m 40.5,58.326172 c -0.564047,-0.0633 -1.145681,-0.03199 -1.722656,0.105469 a 0.50005,0.50005 0 1 0 0.232422,0.972656 c 1.8543,-0.441757 3.756584,0.471426 4.574218,2.193359 a 0.50059564,0.50059564 0 1 0 0.904297,-0.429687 C 43.725048,59.560603 42.192142,58.516068 40.5,58.326172 Z" id="path5412-1-7" style="color:#000000;font-style:normal;font-variant:normal;font-weight:normal;font-stretch:normal;font-size:medium;line-height:normal;font-family:sans-serif;font-variant-ligatures:normal;font-variant-position:normal;font-variant-caps:normal;font-variant-numeric:normal;font-variant-alternates:normal;font-feature-settings:normal;text-indent:0;text-align:start;text-decoration:none;text-decoration-line:none;text-decoration-style:solid;text-decoration-color:#000000;letter-spacing:normal;word-spacing:normal;text-transform:none;writing-mode:lr-tb;direction:ltr;text-orientation:mixed;dominant-baseline:auto;baseline-shift:baseline;text-anchor:start;white-space:normal;shape-padding:0;clip-rule:nonzero;display:inline;overflow:visible;visibility:visible;opacity:1;isolation:auto;mix-blend-mode:normal;color-interpolation:sRGB;color-interpolation-filters:linearRGB;solid-color:#000000;solid-opacity:1;vector-effect:none;fill:#fff6d3;fill-opacity:1;fill-rule:nonzero;stroke:none;stroke-width:3.77952766;stroke-linecap:round;stroke-linejoin:round;stroke-miterlimit:4;stroke-dasharray:none;stroke-dashoffset:56.69291306;stroke-opacity:1;paint-order:normal;color-rendering:auto;image-rendering:auto;shape-rendering:auto;text-rendering:auto;enable-background:accumulate"/></g><g id="g5428-5-8" style="stroke-width:3.77952766" transform="translate(-22.574895,24.07123)"><path d="m 37.850727,48.790426 c -8.503319,1.42e-4 -15.408062,6.904884 -15.408203,15.408203 -5.9e-5,8.50346 6.904743,15.408062 15.408203,15.408203 7.849057,-0.0013 14.431018,-5.914721 15.298828,-13.703125 1.564483,-1.800136 2.460772,-4.087109 2.464844,-6.476562 a 0.50005,0.50005 0 0 0 0,-0.002 c 1.37e-4,-5.477099 -4.450636,-9.927668 -9.927735,-9.927735 -0.806993,0.0014 -1.608199,0.122521 -2.390625,0.31836 -1.739726,-0.663691 -3.582484,-1.020162 -5.445312,-1.025391 z m -0.002,1 h 0.002 c 1.787148,0.0053 3.557075,0.343169 5.220703,0.996094 a 0.50005,0.50005 0 0 0 0.3125,0.01758 c 0.750574,-0.201915 1.525483,-0.3051 2.302734,-0.306641 4.936655,6.1e-5 8.927858,3.99108 8.927735,8.927735 -0.0038,2.20968 -0.825464,4.338568 -2.308594,5.976562 a 0.50005,0.50005 0 0 0 -0.126953,0.285157 C 51.416451,73.032037 45.235314,78.605613 37.850727,78.606832 29.887703,78.6067 23.442469,72.161653 23.442524,64.198629 23.442656,56.236401 29.886798,49.79163 37.848774,49.790426 Z" id="path4506-4-9-6" style="color:#000000;font-style:normal;font-variant:normal;font-weight:normal;font-stretch:normal;font-size:medium;line-height:normal;font-family:sans-serif;font-variant-ligatures:normal;font-variant-position:normal;font-variant-caps:normal;font-variant-numeric:normal;font-variant-alternates:normal;font-feature-settings:normal;text-indent:0;text-align:start;text-decoration:none;text-decoration-line:none;text-decoration-style:solid;text-decoration-color:#000000;letter-spacing:normal;word-spacing:normal;text-transform:none;writing-mode:lr-tb;direction:ltr;text-orientation:mixed;dominant-baseline:auto;baseline-shift:baseline;text-anchor:start;white-space:normal;shape-padding:0;clip-rule:nonzero;display:inline;overflow:visible;visibility:visible;opacity:1;isolation:auto;mix-blend-mode:normal;color-interpolation:sRGB;color-interpolation-filters:linearRGB;solid-color:#000000;solid-opacity:1;vector-effect:none;fill:#666666;fill-opacity:1;fill-rule:nonzero;stroke:none;stroke-width:3.77952766;stroke-linecap:round;stroke-linejoin:round;stroke-miterlimit:4;stroke-dasharray:none;stroke-dashoffset:56.69291306;stroke-opacity:1;paint-order:normal;color-rendering:auto;image-rendering:auto;shape-rendering:auto;text-rendering:auto;enable-background:accumulate"/><path d="m 39.943359,56.041016 c -4.017438,0 -7.285156,3.267718 -7.285156,7.285156 0,4.017438 3.267718,7.285156 7.285156,7.285156 4.017439,0 7.285157,-3.267718 7.285157,-7.285156 0,-4.017438 -3.267718,-7.285156 -7.285157,-7.285156 z m 0,1 c 3.476999,0 6.285157,2.808158 6.285157,6.285156 0,3.476998 -2.808158,6.285156 -6.285157,6.285156 -3.476998,0 -6.285156,-2.808158 -6.285156,-6.285156 0,-3.476998 2.808158,-6.285156 6.285156,-6.285156 z" id="path4525-5-4-8" style="color:#000000;font-style:normal;font-variant:normal;font-weight:normal;font-stretch:normal;font-size:medium;line-height:normal;font-family:sans-serif;font-variant-ligatures:normal;font-variant-position:normal;font-variant-caps:normal;font-variant-numeric:normal;font-variant-alternates:normal;font-feature-settings:normal;text-indent:0;text-align:start;text-decoration:none;text-decoration-line:none;text-decoration-style:solid;text-decoration-color:#000000;letter-spacing:normal;word-spacing:normal;text-transform:none;writing-mode:lr-tb;direction:ltr;text-orientation:mixed;dominant-baseline:auto;baseline-shift:baseline;text-anchor:start;white-space:normal;shape-padding:0;clip-rule:nonzero;display:inline;overflow:visible;visibility:visible;opacity:1;isolation:auto;mix-blend-mode:normal;color-interpolation:sRGB;color-interpolation-filters:linearRGB;solid-color:#000000;solid-opacity:1;vector-effect:none;fill:#666666;fill-opacity:1;fill-rule:nonzero;stroke:none;stroke-width:3.77952766;stroke-linecap:round;stroke-linejoin:round;stroke-miterlimit:4;stroke-dasharray:none;stroke-dashoffset:56.69291306;stroke-opacity:1;paint-order:normal;color-rendering:auto;image-rendering:auto;shape-rendering:auto;text-rendering:auto;enable-background:accumulate"/></g></g></g></g></svg>