<?xml version="1.0" ?><svg enable-background="new 0 0 24 24" id="Layer_1" version="1.1" viewBox="0 0 24 24" xml:space="preserve" xmlns="http://www.w3.org/2000/svg" xmlns:xlink="http://www.w3.org/1999/xlink"><g><path d="M22.8730469,11.1663647c-0.0957031-0.105957-0.2304688-0.1665039-0.3730469-0.1665039   c-2.3070679,0-7.7605591,1.5489502-10.0014038,6.0891113l-0.0010986-4.1370239   c2.4751587-0.2415161,4.4798584-2.232605,4.6528931-4.7606812c0.2158203-3.1645513,0.5722656-4.1240239,0.765625-4.4145513   c0.0976562-0.1464844,0.1113281-0.3339844,0.0351562-0.4926758c-0.0761719-0.1591797-0.2304688-0.2661133-0.40625-0.2822266   c-0.0759888-0.0056763-1.3021851-0.1063843-2.6332397,0.2459106l-2.5942993-2.1340942   c-0.1865234-0.1538086-0.4580078-0.1508789-0.6425781,0.0063477L9.1679688,3.2690253   c-1.3616333-0.378479-2.635376-0.2739258-2.7128906-0.2672119C6.2792969,3.0179267,6.125,3.1248603,6.0488281,3.28404   c-0.0761719,0.1586914-0.0625,0.3461914,0.0351562,0.4926758c0.1933594,0.2905273,0.5498047,1.25,0.765625,4.4145513   c0.1727905,2.5241699,2.1715698,4.5129395,4.6478882,4.7595825l0.0010986,4.1325073   C9.2559814,12.5475292,3.8061523,10.9998608,1.5,10.9998608c-0.1425781,0-0.2773438,0.0605469-0.3730469,0.1665039   c-0.0947266,0.105957-0.1396484,0.2475586-0.1240234,0.3886719c0.9990234,8.9892578,7.3808594,11.4238281,10.9941406,11.4448242   c0.0009766,0,0.0019531,0,0.0029297,0s0.0019531,0,0.0029297,0c3.6132812-0.0209961,9.9951172-2.4555664,10.9941406-11.4448242   C23.0126953,11.4139233,22.9677734,11.2723217,22.8730469,11.1663647z" fill="#303C42"/><path d="M16.1523438,8.1229076c-0.1368408,2.0036011-1.7005615,3.5895386-3.6550903,3.8284302l-0.0011597-4.4321294   C12.4963379,7.5124335,12.5,7.5067573,12.5,7.4998603c0-1.0234375,0.3193359-1.8354492,0.9501953-2.4125977   c0.9550781-0.875,2.4248047-1.0668945,3.2929688-1.0981445C16.5419922,4.6473212,16.3076172,5.8509345,16.1523438,8.1229076z" fill="#EE3124"/><path d="M12.0068359,2.1526923l1.8161621,1.4940796c-0.3701782,0.1810913-0.7265015,0.4090576-1.0446777,0.6992798   C12.4599609,4.6375556,12.2001953,4.9690986,12,5.3392158c-0.2001953-0.3701172-0.4599609-0.7016602-0.7783203-0.9931641   c-0.3026733-0.2761841-0.6404419-0.4942017-0.9910278-0.6710815L12.0068359,2.1526923z" fill="#EE3124"/><path d="M12.0068359,2.9998603l1.2163696,1.0006714   c0.1936035-0.1328125,0.3933716-0.2527466,0.5997925-0.3537598l-1.8161621-1.4940796l-1.7761841,1.5222778   c0.199707,0.100769,0.3926392,0.2196045,0.579895,0.3501587L12.0068359,2.9998603z" fill="#FFFFFF" opacity="0.2"/><path d="M7.8476562,8.1229076C7.6923828,5.8509345,7.4580078,4.6473212,7.2568359,3.9891181   C8.125,4.0203681,9.5947266,4.2122626,10.5498047,5.0872626C11.1806641,5.6644111,11.5,6.4764228,11.5,7.4998603h-0.0039062   l0.0011597,4.4515386C9.5484619,11.7128735,7.9844971,10.1267529,7.8476562,8.1229076z" fill="#EE3124"/><path d="M12.5,8.510603c0-1.023438,0.3193359-1.8354497,0.9501953-2.4125981   c0.8739624-0.8007202,2.173584-1.0272827,3.0541382-1.0843506c0.0803223-0.4399414,0.1619873-0.7730103,0.2388306-1.0245361   c-0.8681641,0.03125-2.3378906,0.2231445-3.2929688,1.0981445C12.8193359,5.6644111,12.5,6.4764228,12.5,7.4998603   c0,0.006897-0.0036621,0.0125732-0.0039062,0.0193481l0.0002441,1.0094609C12.4969482,8.5225048,12.5,8.5170116,12.5,8.510603z" fill="#FFFFFF" opacity="0.2"/><path d="M10.5498047,6.0980048c0.6212158,0.5682983,0.9368896,1.3666992,0.9465332,2.3681035   l-0.0002441-0.966248H11.5c0-1.0234375-0.3193359-1.8354492-0.9501953-2.4125977   C9.5947266,4.2122626,8.125,4.0203681,7.2568359,3.9891181C7.3336792,4.240644,7.4153442,4.5737128,7.4956665,5.0136542   C8.3762207,5.0707221,9.6758423,5.2972846,10.5498047,6.0980048z" fill="#FFFFFF" opacity="0.2"/><rect fill="#FFFFFF" height="3.4407656" opacity="0.2" width="0.0002479" x="11.4965496" y="8.510603"/><path d="M12.5241699,10.96208l-0.0010376-3.743958C12.5171509,7.3132148,12.5,7.4008002,12.5,7.4998603   c0,0.006897-0.0036621,0.0125732-0.0039062,0.0193481l0.0011597,4.4321294   c1.9437256-0.2375488,3.49823-1.8082886,3.6499634-3.7962036C15.6159668,9.6539745,14.2165527,10.765852,12.5241699,10.96208z" opacity="0.1"/><path d="M11.5,7.4998603c0-0.1328125-0.0202637-0.2520752-0.0310059-0.3777466l0.0010376,3.8400273   c-1.6873169-0.1959229-3.0860596-1.3076782-3.6171875-2.8066406c0.1518555,1.9879761,1.7064819,3.5587158,3.6444092,3.7958984   l-0.0011597-4.4515386H11.5z" opacity="0.1"/><path d="M2.0712891,12.0286694c3.0130005,0.2821655,9.4255371,2.6890259,9.4284668,9.4667969l0.0001221,0.4807739   C8.2440796,21.7481518,3.1373901,19.4510937,2.0712891,12.0286694z" fill="#7CB342"/><path d="M12.4998779,21.9762402l-0.0001221-0.4750977L12.5,21.4998608   c0-6.78125,6.4150391-9.1889648,9.4287109-9.4711914C20.8625488,19.4512768,15.7556763,21.7482738,12.4998779,21.9762402z" fill="#7CB342"/><path d="M11.4997559,21.4954662c-0.0001221-0.3466797-0.0275269-0.6744995-0.0599365-0.9986572   c-2.6937256-0.178894-6.5569458-1.5757446-8.6548462-5.5516968c1.8100586,5.1196289,5.9337158,6.8363037,8.7149048,7.0311279   L11.4997559,21.4954662z" opacity="0.1"/><path d="M12.5597534,20.496809C12.5272217,20.8223095,12.5,21.1516552,12.5,21.4998608l-0.0002441,0.0012817   l0.0001221,0.4750977c2.78125-0.1947632,6.9050293-1.911377,8.7151489-7.0311279   C19.1170654,18.9211864,15.25354,20.317976,12.5597534,20.496809z" opacity="0.1"/><linearGradient gradientUnits="userSpaceOnUse" id="SVGID_1_" x1="2.6575284" x2="21.6022339" y1="7.8337755" y2="16.6678371"><stop offset="0" style="stop-color:#FFFFFF;stop-opacity:0.2"/><stop offset="1" style="stop-color:#FFFFFF;stop-opacity:0"/></linearGradient><path d="M22.8730469,11.1663647c-0.0957031-0.105957-0.2304688-0.1665039-0.3730469-0.1665039   c-2.3070679,0-7.7605591,1.5489502-10.0014038,6.0891113l-0.0010986-4.1370239   c2.4751587-0.2415161,4.4798584-2.232605,4.6528931-4.7606812c0.2158203-3.1645513,0.5722656-4.1240239,0.765625-4.4145513   c0.0976562-0.1464844,0.1113281-0.3339844,0.0351562-0.4926758c-0.0761719-0.1591797-0.2304688-0.2661133-0.40625-0.2822266   c-0.0759888-0.0056763-1.3021851-0.1063843-2.6332397,0.2459106l-2.5942993-2.1340942   c-0.1865234-0.1538086-0.4580078-0.1508789-0.6425781,0.0063477L9.1679688,3.2690253   c-1.3616333-0.378479-2.635376-0.2739258-2.7128906-0.2672119C6.2792969,3.0179267,6.125,3.1248603,6.0488281,3.28404   c-0.0761719,0.1586914-0.0625,0.3461914,0.0351562,0.4926758c0.1933594,0.2905273,0.5498047,1.25,0.765625,4.4145513   c0.1727905,2.5241699,2.1715698,4.5129395,4.6478882,4.7595825l0.0010986,4.1325073   C9.2559814,12.5475292,3.8061523,10.9998608,1.5,10.9998608c-0.1425781,0-0.2773438,0.0605469-0.3730469,0.1665039   c-0.0947266,0.105957-0.1396484,0.2475586-0.1240234,0.3886719c0.9990234,8.9892578,7.3808594,11.4238281,10.9941406,11.4448242   c0.0009766,0,0.0019531,0,0.0029297,0s0.0019531,0,0.0029297,0c3.6132812-0.0209961,9.9951172-2.4555664,10.9941406-11.4448242   C23.0126953,11.4139233,22.9677734,11.2723217,22.8730469,11.1663647z" fill="url(#SVGID_1_)"/></g><g/><g/><g/><g/><g/><g/><g/><g/><g/><g/><g/><g/><g/><g/><g/></svg>