<?xml version="1.0" ?><svg height="512px" version="1.1" viewBox="0 0 512 512" width="512px" xmlns="http://www.w3.org/2000/svg" xmlns:xlink="http://www.w3.org/1999/xlink"><title/><desc/><defs/><g fill="none" fill-rule="evenodd" id="SVG" stroke="none" stroke-width="1"><g id="Donut"><g id="IceCream" transform="translate(102.000000, 0.000000)"><path d="M254.423738,409.229257 L50.5127564,409.229257 C28.4013382,409.229257 10.4720291,391.319331 10.4720291,369.224842 L10.4720291,152.311088 C10.4720291,73.9691105 74.0484655,10.4614054 152.468247,10.4614054 L152.468247,10.4614054 C230.895011,10.4614054 294.471447,73.9691105 294.471447,152.311088 L294.471447,369.224842 C294.471447,391.319331 276.542138,409.229257 254.423738,409.229257" fill="#F5903D" id="Fill-1"/><path d="M152.468247,20.9228108 C79.94112,20.9228108 20.9447564,79.8623689 20.9447564,152.311088 L20.9447564,369.224842 C20.9447564,385.516738 34.2171927,398.767851 50.5127564,398.767851 L254.423738,398.767851 C270.726284,398.767851 283.99872,385.516738 283.99872,369.224842 L283.99872,152.311088 C283.99872,79.8623689 224.995375,20.9228108 152.468247,20.9228108 M254.423738,419.690662 L50.5127564,419.690662 C22.6622836,419.690662 -0.000698181818,397.052181 -0.000698181818,369.224842 L-0.000698181818,152.311088 C-0.000698181818,68.3269258 68.4001745,0 152.468247,0 C236.543302,0 304.944175,68.3269258 304.944175,152.311088 L304.944175,369.224842 C304.944175,397.052181 282.281193,419.690662 254.423738,419.690662" fill="#2E2E30" id="Fill-3"/><path d="M154.761076,501.060868 L154.761076,501.060868 C136.768931,501.060868 122.176931,486.491618 122.176931,468.511949 L122.176931,409.230652 L187.345222,409.230652 L187.345222,468.511949 C187.345222,486.491618 172.753222,501.060868 154.761076,501.060868" fill="#F6EFD5" id="Fill-6"/><path d="M132.654545,419.692057 L132.654545,468.511949 C132.654545,480.689025 142.568727,490.599463 154.758982,490.599463 C166.949236,490.599463 176.8704,480.689025 176.8704,468.511949 L176.8704,419.692057 L132.654545,419.692057 Z M154.758982,511.522274 C131.0208,511.522274 111.709091,492.224468 111.709091,468.511949 L111.709091,409.230652 C111.709091,403.455956 116.400873,398.769246 122.181818,398.769246 L187.343127,398.769246 C193.124073,398.769246 197.815855,403.455956 197.815855,409.230652 L197.815855,468.511949 C197.815855,492.224468 178.497164,511.522274 154.758982,511.522274 L154.758982,511.522274 Z" fill="#2E2E30" id="Fill-8"/><path d="M129.067287,398.838291 L76.5151418,398.838291 L76.5151418,173.241571 C76.5151418,158.742063 88.2795055,146.990418 102.794705,146.990418 L102.794705,146.990418 C117.302924,146.990418 129.067287,158.742063 129.067287,173.241571 L129.067287,398.838291 Z" fill="#C97636" id="Fill-10"/><path d="M181.618036,398.838291 L234.170182,398.838291 L234.170182,173.241571 C234.170182,158.742063 222.405818,146.990418 207.890618,146.990418 L207.890618,146.990418 C193.3824,146.990418 181.618036,158.742063 181.618036,173.241571 L181.618036,398.838291 Z" fill="#C97636" id="Fill-12"/><polygon fill="#010201" fill-opacity="0.3" id="Fill-14" points="133.143273 440.579996 176.374691 440.579996 176.374691 418.785402 133.143273 418.785402"/></g></g></g></svg>