<?xml version="1.0" ?><!DOCTYPE svg  PUBLIC '-//W3C//DTD SVG 1.1//EN'  'http://www.w3.org/Graphics/SVG/1.1/DTD/svg11.dtd'><svg enable-background="new 0 0 64 64" height="64px" id="SOCK" version="1.1" viewBox="0 0 64 64" width="64px" xml:space="preserve" xmlns="http://www.w3.org/2000/svg" xmlns:xlink="http://www.w3.org/1999/xlink"><g id="SOCK_1_"><path d="M40.43,13.789c-0.215-0.799-1.039-1.276-1.838-1.062l-16.26,4.356c-0.8,0.215-1.275,1.039-1.061,1.839   c0.214,0.799,1.038,1.274,1.837,1.061l16.261-4.357C40.168,15.412,40.644,14.587,40.43,13.789z" fill="#FFFFFF"/><path d="M42.939,30.93l-3.537-13.243l-15.293,4.098l3.543,13.224c0.116,0.437-0.074,0.898-0.467,1.124l-2.464,1.424   c3.028,1.067,5.414,3.561,6.276,6.777c0.473,1.766,0.441,3.601-0.055,5.315l7.17-4.139c-0.54-0.848-0.951-1.769-1.216-2.757   C35.571,37.805,38.251,32.712,42.939,30.93z" fill="#D64541"/><path d="M43.461,32.882c-3.621,1.488-5.671,5.475-4.632,9.354c0.22,0.818,0.56,1.581,1.014,2.275l1.329-0.768   c2.506-1.446,3.822-4.326,3.276-7.165L43.461,32.882z" fill="#4DAF7C"/><path d="M22.223,39.045c-2.766,2.018-3.625,5.848-1.876,8.879c0.907,1.571,2.371,2.695,4.124,3.165   c1.229,0.329,2.494,0.302,3.683-0.053c1.138-1.849,1.478-4.079,0.913-6.186C28.212,41.663,25.482,39.375,22.223,39.045z" fill="#4DAF7C"/><path d="M42.361,13.271c-0.5-1.865-2.423-2.976-4.287-2.476l-16.261,4.357c-1.863,0.5-2.974,2.422-2.475,4.288   c0.36,1.343,1.464,2.283,2.747,2.523l3.436,12.821l-3.688,2.13c-4.197,2.423-5.642,7.811-3.218,12.01   c1.174,2.034,3.069,3.488,5.339,4.097c1.511,0.405,3.065,0.402,4.538,0.008c0.736-0.197,1.454-0.494,2.133-0.886l11.547-6.667   c3.243-1.872,4.947-5.6,4.224-9.345l-5.152-19.3C42.236,15.981,42.721,14.614,42.361,13.271z M27.186,36.132   c0.393-0.226,0.583-0.688,0.467-1.124l-3.543-13.224l15.293-4.098l3.537,13.243c-4.688,1.782-7.368,6.875-6.042,11.823   c0.265,0.988,0.676,1.909,1.216,2.757l-7.17,4.139c0.496-1.715,0.527-3.55,0.055-5.315c-0.862-3.217-3.248-5.71-6.276-6.777   L27.186,36.132z M24.471,51.089c-1.753-0.47-3.217-1.594-4.124-3.165c-1.749-3.031-0.89-6.861,1.876-8.879   c3.26,0.33,5.989,2.618,6.844,5.806c0.564,2.106,0.225,4.337-0.913,6.186C26.965,51.391,25.699,51.418,24.471,51.089z    M41.172,43.743l-1.329,0.768c-0.454-0.694-0.794-1.457-1.014-2.275c-1.039-3.879,1.011-7.865,4.632-9.354l0.987,3.696   C44.994,39.417,43.678,42.297,41.172,43.743z M39.369,15.625l-16.261,4.357c-0.799,0.214-1.623-0.262-1.837-1.061   c-0.215-0.8,0.261-1.624,1.061-1.839l16.26-4.356c0.799-0.214,1.623,0.262,1.838,1.062C40.644,14.587,40.168,15.412,39.369,15.625z   " fill="#26251D"/></g></svg>