<?xml version="1.0" ?><svg enable-background="new 0 0 64 64" id="Слой_1" version="1.1" viewBox="0 0 64 64" xml:space="preserve" xmlns="http://www.w3.org/2000/svg" xmlns:xlink="http://www.w3.org/1999/xlink"><g id="row_1"><g id="umbrella"><g><path d="M57.8,35.3c-0.5,0-0.9-0.4-1-0.9c-0.1-0.7-0.2-1.4-0.3-2.1c-0.1-0.5,0.3-1.1,0.9-1.1     c0.5-0.1,1.1,0.3,1.1,0.9c0.1,0.7,0.2,1.4,0.3,2.2C58.9,34.8,58.5,35.3,57.8,35.3C57.9,35.3,57.8,35.3,57.8,35.3z" fill="#455A64"/><path d="M6.2,35.3C6.2,35.3,6.1,35.3,6.2,35.3c-0.6-0.1-1-0.5-1-1.1c0.1-0.7,0.2-1.5,0.3-2.2     c0.1-0.5,0.6-0.9,1.1-0.9c0.5,0.1,0.9,0.6,0.9,1.1c-0.1,0.7-0.2,1.4-0.3,2.1C7.1,34.9,6.7,35.3,6.2,35.3z" fill="#455A64"/><path d="M20,36.6C20,36.6,20,36.6,20,36.6c-0.6,0-1-0.5-1-1c0-0.6,0-1.1,0-1.7l0-0.3c0-0.6,0.4-1,1-1     c0.6,0,1,0.5,1,1l0,0.3c0,0.5,0,1.1,0,1.6C21,36.2,20.6,36.6,20,36.6z" fill="#455A64"/><path d="M44,36.6c-0.5,0-1-0.4-1-1c0-0.5,0-1.1,0-1.6l0-0.3c0-0.6,0.4-1,1-1c0.6,0,1,0.4,1,1l0,0.2     c0,0.6,0,1.1,0,1.7C45,36.2,44.5,36.6,44,36.6C44,36.6,44,36.6,44,36.6z" fill="#455A64"/></g><rect fill="#B0BEC5" height="22" width="2" x="31" y="30"/><path d="M27.6,54.6c0.3,0.3,0.5,0.8,0.4,1.3c0,0.3,0,0.6,0.3,0.9c0.4,0.4,1,0.4,1.4,0c0.2-0.2,0.3-0.4,0.3-0.7    c0-1.1,0-3.6,0-5c0-0.6,0.4-1,1-1h2c0.6,0,1,0.4,1,1v5c0,1.3-0.5,2.6-1.5,3.6c-1,1-2.3,1.5-3.5,1.5s-2.6-0.5-3.5-1.5    c-1.4-1.4-1.8-3.5-1.1-5.3c0.4-1,1.7-1.3,2.5-0.5L27.6,54.6z" fill="#2196F3"/><path d="M32,5.6c3.6,0.3,7.1,1,10.4,2.1c4.1,1.4,7.7,4.1,10,7.8c3.1,4.9,5.2,10.5,6.1,16.6    c-4.9,0.2-9.8,0.7-14.6,1.6c-0.2-6.9-1.4-13.7-3.5-20.3c-0.8-2.4-2.4-4.4-4.5-5.6C34.6,7,33.3,6.3,32,5.6z" fill="#039BE5"/><path d="M31.9,5.6c-3.6,0.3-7.1,1-10.4,2.1c-4.1,1.4-7.7,4.1-10,7.8C8.4,20.4,6.3,26,5.4,32.1    c4.9,0.2,9.8,0.7,14.6,1.6c0.2-6.9,1.4-13.7,3.5-20.4c0.8-2.4,2.4-4.4,4.5-5.6C29.3,6.9,30.6,6.3,31.9,5.6z" fill="#4FC3F7"/><path d="M43.9,33.6c-0.2-6.9-1.4-13.7-3.5-20.3c-0.8-2.4-2.4-4.4-4.5-5.6c-1.3-0.7-2.7-1.4-4-2.1    c-1.3,0.6-2.6,1.3-3.9,2c-2.2,1.2-3.8,3.2-4.5,5.6c-2.1,6.6-3.2,13.5-3.5,20.4C27.8,32.7,36.2,32.7,43.9,33.6z" fill="#29B6F6"/><path d="M33.5,5.7c0,0.6-3,0.6-3,0l0.4-2.4c0.1-0.5,0.5-0.8,1-0.8h0.3c0.5,0,0.9,0.4,1,0.8L33.5,5.7z" fill="#78909C"/></g></g></svg>