<?xml version="1.0" ?><svg id="Layer_1_1_" style="enable-background:new 0 0 64 64;" version="1.1" viewBox="0 0 64 64" xml:space="preserve" xmlns="http://www.w3.org/2000/svg" xmlns:xlink="http://www.w3.org/1999/xlink"><path d="M62.047,7.235l-5.146-5.217c-1.297-1.314-3.559-1.314-4.855,0L46.9,7.235  c-1.327,1.345-1.327,3.535,0,4.882l0.151,0.153l-1.187,1.155c0.075-0.972-0.238-1.97-0.971-2.712c-1.297-1.314-3.559-1.314-4.855,0  c-0.943,0.956-1.203,2.333-0.807,3.536c-1.192-0.371-2.572-0.11-3.481,0.812c-1.327,1.345-1.327,3.535,0,4.882  c0.635,0.644,1.479,0.999,2.377,1.013l-1.895,1.844l-0.647-0.656c-2.369-2.402-5.58-3.78-8.809-3.78  c-2.952,0-5.688,1.126-7.703,3.169c-0.32,0.325-0.612,0.675-0.888,1.037L6.746,2.756c-0.428-0.74-1.088-1.294-1.86-1.559  C4.062,0.916,3.217,0.988,2.5,1.402S1.297,2.514,1.131,3.365C0.974,4.167,1.123,5.016,1.55,5.756l13.799,23.897  c-1.03,1.855-2.914,3.055-5.078,3.212L7.711,33.05l-1.98,2.008c-6.263,6.35-6.262,15.924,0,22.272l0.428,0.433l1.288,1.306  c0.234,0.237,0.503,0.42,0.785,0.577c2.752,2.166,5.99,3.354,9.32,3.354c4.068,0,7.992-1.705,11.046-4.802l1.976-2.001l0.04-0.56  l4.465,6.381c0.451,0.645,1.147,0.999,1.843,0.999c0.343,0,0.686-0.086,0.998-0.267h0.001c0.946-0.547,1.285-1.763,0.788-2.828  l-4.427-9.475l-0.936-1.621c0.792-0.577,1.712-0.968,2.71-1.132c2.267-0.371,4.302-1.415,5.886-3.021  c4.313-4.373,4.102-11.71-0.415-16.489l1.813-1.917c0.017,0.86,0.343,1.715,0.989,2.37c0.647,0.657,1.51,1.019,2.428,1.019  c0.917,0,1.779-0.361,2.427-1.019c0.936-0.949,1.198-2.314,0.815-3.51c0.335,0.109,0.684,0.18,1.046,0.18  c0.918,0,1.779-0.361,2.428-1.018c0-0.001,0-0.001,0-0.001c1.329-1.346,1.328-3.535,0-4.882c-0.723-0.733-1.747-1.041-2.737-0.955  l1.182-1.25l0.131,0.133c0.648,0.655,1.511,1.017,2.428,1.017s1.779-0.361,2.428-1.018l5.146-5.217  C63.374,10.771,63.374,8.58,62.047,7.235z M25.794,35.748l10.409-10.13l0.57,0.578L26.368,36.743L25.794,35.748z M27.405,38.539  l10.772-10.92l0.575,0.583L27.999,39.567L27.405,38.539z M39.582,26.196l10.603-10.748l0.325,0.33L40.128,26.749L39.582,26.196z   M41.462,12.117c0.27-0.272,0.626-0.423,1.004-0.423s0.734,0.15,1.004,0.423c0.564,0.571,0.564,1.502,0,2.073  c-0.539,0.545-1.469,0.545-2.008,0C40.897,13.619,40.897,12.688,41.462,12.117z M37.174,16.465c0.269-0.272,0.625-0.423,1.003-0.423  c0.379,0,0.735,0.15,1.004,0.423c0.563,0.571,0.563,1.501,0,2.073c-0.537,0.545-1.47,0.545-2.007,0  C36.61,17.966,36.61,17.036,37.174,16.465z M41.418,16.432c0.336,0.109,0.685,0.181,1.047,0.181c0.046,0,0.09-0.012,0.136-0.013  l-1.01,0.982C41.601,17.193,41.538,16.806,41.418,16.432z M48.455,13.694l0.325,0.33L38.177,24.772l-0.542-0.549L48.455,13.694z   M20.497,22.937c1.637-1.659,3.867-2.573,6.279-2.573c2.697,0,5.389,1.161,7.385,3.185l0.637,0.646l-10.036,9.767l-5.458-9.453  C19.649,23.943,20.034,23.406,20.497,22.937z M7.154,36.462l1.451-1.471l1.811-0.132c2.448-0.176,4.622-1.379,6.05-3.272  l3.884,6.727l-0.029-0.03L5.013,53.18C1.737,47.844,2.44,41.241,7.154,36.462z M9.261,57.922c-0.178-0.146-0.351-0.3-0.525-0.456  l14.301-14.498l0.661,1.145L10.877,57.664C10.452,58.095,9.788,58.171,9.261,57.922z M7.3,56.073l-0.146-0.148  c-0.419-0.424-0.565-1.085-0.6-1.455L21.36,40.062L22,41.171L7.3,56.073z M28.629,55.318l-1.456,1.476  C24.498,59.506,21.08,61,17.551,61c-2.051,0-4.019-0.506-5.846-1.459c0.216-0.139,0.423-0.297,0.61-0.487L24.742,45.92l4.07,7.048  c-0.021,0.167-0.041,0.334-0.052,0.503L28.629,55.318z M36.895,60.768c0.057,0.122,0.039,0.217,0.023,0.247  c-0.035-0.002-0.125-0.034-0.202-0.144l-5.899-8.424L3.282,4.756C3.099,4.438,3.03,4.072,3.093,3.749  C3.125,3.59,3.219,3.297,3.5,3.135c0.135-0.078,0.273-0.104,0.399-0.104c0.137,0,0.257,0.03,0.337,0.058  c0.312,0.107,0.595,0.35,0.777,0.667L32.508,51.37L36.895,60.768z M40.516,43.269c-1.284,1.302-2.939,2.149-4.785,2.451  c-1.238,0.203-2.388,0.672-3.392,1.365l-3.296-5.71l11.104-11.736C43.856,33.643,44.051,39.685,40.516,43.269z M47.758,27.232  c-0.538,0.546-1.471,0.544-2.007,0c-0.564-0.571-0.564-1.502,0-2.073c0.269-0.272,0.625-0.423,1.004-0.423  c0.378,0,0.734,0.15,1.003,0.423C48.322,25.73,48.322,26.661,47.758,27.232z M52.046,20.812c0.564,0.572,0.564,1.502,0,2.072v0.001  c-0.537,0.544-1.47,0.546-2.007,0c-0.563-0.571-0.563-1.501,0-2.073c0.269-0.272,0.625-0.422,1.003-0.422  C51.421,20.39,51.777,20.539,52.046,20.812z M47.809,22.944c-0.38-0.118-0.775-0.176-1.172-0.164l0.994-1.051  C47.617,22.141,47.679,22.55,47.809,22.944z M60.623,10.713l-5.146,5.216c-0.537,0.547-1.471,0.546-2.008,0.001l-0.179-0.181l0,0  l-4.807-4.873l0,0l-0.16-0.162c-0.563-0.572-0.563-1.502,0-2.073l5.146-5.217C53.739,3.15,54.096,3,54.474,3s0.734,0.15,1.004,0.423  l5.146,5.217C61.187,9.211,61.187,10.141,60.623,10.713z" style="fill:#3F3A34;"/></svg>