<?xml version="1.0" ?><svg height="128" id="svg8" version="1.1" viewBox="0 0 33.866666 33.866668" width="128" xmlns="http://www.w3.org/2000/svg" xmlns:svg="http://www.w3.org/2000/svg" xmlns:xlink="http://www.w3.org/1999/xlink"><defs id="defs2"><clipPath clipPathUnits="userSpaceOnUse" id="clipPath5292"><ellipse cx="554.68481" cy="1234.8002" id="ellipse5294" rx="46.906162" ry="46.90797" style="display:inline;opacity:0.469;fill:#ffaaaa;fill-rule:evenodd;stroke:#333333;stroke-width:3.5625;stroke-linecap:round;stroke-linejoin:round;stroke-miterlimit:4;stroke-dasharray:none;stroke-dashoffset:6.5999999;stroke-opacity:1"/></clipPath><clipPath clipPathUnits="userSpaceOnUse" id="clipPath6174"><ellipse cx="128.2972" cy="1416.0679" id="ellipse6176" rx="55.76445" ry="55.766594" style="display:inline;opacity:0.572;fill:#ff9696;fill-opacity:1;fill-rule:evenodd;stroke:#333333;stroke-width:4.21448183;stroke-linecap:round;stroke-linejoin:round;stroke-miterlimit:4;stroke-dasharray:none;stroke-dashoffset:6.5999999;stroke-opacity:1"/></clipPath><clipPath clipPathUnits="userSpaceOnUse" id="clipPath5123"><ellipse cx="68.499504" cy="1656.6876" id="ellipse5125" rx="71.409416" ry="71.223892" style="display:inline;opacity:0.45199998;fill:#ffe680;fill-rule:evenodd;stroke:none;stroke-width:4.21448183;stroke-linecap:round;stroke-linejoin:round;stroke-miterlimit:4;stroke-dasharray:none;stroke-dashoffset:6.5999999;stroke-opacity:1"/></clipPath><clipPath clipPathUnits="userSpaceOnUse" id="clipPath8754"><ellipse cx="205.48343" cy="1298.3982" id="ellipse8756" rx="78.18396" ry="83.010139" style="display:inline;opacity:0.419;fill:#ffaaaa;fill-opacity:1;fill-rule:evenodd;stroke:#333333;stroke-width:4.21448183;stroke-linecap:round;stroke-linejoin:round;stroke-miterlimit:4;stroke-dasharray:none;stroke-dashoffset:6.5999999;stroke-opacity:1"/></clipPath><clipPath clipPathUnits="userSpaceOnUse" id="clipPath11474"><ellipse cx="230.12242" cy="1486.3468" id="ellipse11476" rx="55.76445" ry="55.766594" style="display:inline;opacity:0.32099998;fill:#efb5e3;fill-opacity:1;fill-rule:evenodd;stroke:none;stroke-width:4.21448183;stroke-linecap:round;stroke-linejoin:round;stroke-miterlimit:4;stroke-dasharray:none;stroke-dashoffset:6.5999999;stroke-opacity:1"/></clipPath><clipPath clipPathUnits="userSpaceOnUse" id="clipPath5143"><ellipse cx="209.94763" cy="1573.1123" id="ellipse5145" rx="55.764446" ry="55.766594" style="display:inline;opacity:0.43500001;fill:#ffaaaa;fill-rule:evenodd;stroke:#333333;stroke-width:4.21448183;stroke-linecap:round;stroke-linejoin:round;stroke-miterlimit:4;stroke-dasharray:none;stroke-dashoffset:6.5999999;stroke-opacity:1"/></clipPath></defs><g id="layer1" transform="translate(0,-263.13332)"><g id="g4818" transform="matrix(0.35558661,0,0,0.35558661,-223.03075,-207.73525)"><g id="g5939" transform="matrix(0.98296966,0,0,0.98296966,105.04955,300.9932)"><g id="g6979" transform="matrix(0.35351539,0,0,0.42750233,-216.72497,492.44544)"><path d="m 2268.9414,1508.5938 -21.6719,21.5429 a 176.67842,175.64613 0 0 0 249.8614,0 l -21.5899,-21.4629 a 149.82319,148.77891 0 0 1 -10.209,8.9063 149.82319,148.77891 0 0 1 -12.1816,8.6504 149.82319,148.77891 0 0 1 -12.9902,7.4004 149.82319,148.77891 0 0 1 -13.67,6.0742 149.82319,148.77891 0 0 1 -14.2109,4.6894 149.82319,148.77891 0 0 1 -14.6133,3.2578 149.82319,148.77891 0 0 1 -14.8672,1.7911 149.82319,148.77891 0 0 1 -10.5976,0.373 149.82319,148.77891 0 0 1 -14.9571,-0.7422 149.82319,148.77891 0 0 1 -14.8086,-2.2226 149.82319,148.77891 0 0 1 -14.5097,-3.6797 149.82319,148.77891 0 0 1 -14.0684,-5.0996 149.82319,148.77891 0 0 1 -13.4863,-6.4688 149.82319,148.77891 0 0 1 -12.7676,-7.7734 149.82319,148.77891 0 0 1 -11.9219,-9 149.82319,148.77891 0 0 1 -6.7402,-6.2363 z" id="path6962" style="fill:#000000;fill-rule:evenodd;stroke:#000000;stroke-width:8.89750004;stroke-linecap:round;stroke-linejoin:round;stroke-miterlimit:4;stroke-dasharray:none;stroke-opacity:1" transform="matrix(1.0525577,0,0,1.0308604,-244.11201,-142.33678)" xlink:href="#path6892"/><path d="m 2144.0791,1412.8148 a 157.69755,156.70286 0 0 0 7.0959,6.5688 157.69755,156.70286 0 0 0 12.5484,9.4792 157.69755,156.70286 0 0 0 13.4384,8.1874 157.69755,156.70286 0 0 0 14.1941,6.8131 157.69755,156.70286 0 0 0 14.8078,5.3709 157.69755,156.70286 0 0 0 15.2733,3.8756 157.69755,156.70286 0 0 0 15.5856,2.3402 157.69755,156.70286 0 0 0 15.7431,0.7834 157.69755,156.70286 0 0 0 11.1558,-0.3928 157.69755,156.70286 0 0 0 15.6486,-1.8881 157.69755,156.70286 0 0 0 15.3806,-3.4295 157.69755,156.70286 0 0 0 14.9581,-4.9397 157.69755,156.70286 0 0 0 14.3885,-6.3984 157.69755,156.70286 0 0 0 13.6738,-7.7938 157.69755,156.70286 0 0 0 12.8216,-9.1117 157.69755,156.70286 0 0 0 10.7459,-9.3811 l -108.7729,-108.2089 z" id="path6964" style="fill:#000000;fill-opacity:1;fill-rule:evenodd;stroke:#000000;stroke-width:9.2681036;stroke-linecap:round;stroke-linejoin:round;stroke-miterlimit:4;stroke-dasharray:none;stroke-opacity:1"/></g><g id="g6968" transform="matrix(0.3392235,0,0,0.40998915,-184.95501,516.68917)"><path d="m 2268.9414,1508.5938 -21.6719,21.5429 a 176.67842,175.64613 0 0 0 249.8614,0 l -21.5899,-21.4629 a 149.82319,148.77891 0 0 1 -10.209,8.9063 149.82319,148.77891 0 0 1 -12.1816,8.6504 149.82319,148.77891 0 0 1 -12.9902,7.4004 149.82319,148.77891 0 0 1 -13.67,6.0742 149.82319,148.77891 0 0 1 -14.2109,4.6894 149.82319,148.77891 0 0 1 -14.6133,3.2578 149.82319,148.77891 0 0 1 -14.8672,1.7911 149.82319,148.77891 0 0 1 -10.5976,0.373 149.82319,148.77891 0 0 1 -14.9571,-0.7422 149.82319,148.77891 0 0 1 -14.8086,-2.2226 149.82319,148.77891 0 0 1 -14.5097,-3.6797 149.82319,148.77891 0 0 1 -14.0684,-5.0996 149.82319,148.77891 0 0 1 -13.4863,-6.4688 149.82319,148.77891 0 0 1 -12.7676,-7.7734 149.82319,148.77891 0 0 1 -11.9219,-9 149.82319,148.77891 0 0 1 -6.7402,-6.2363 z" id="path6960" style="fill:#abc837;fill-rule:evenodd;stroke:none;stroke-width:8.73816013;stroke-linecap:round;stroke-linejoin:round;stroke-miterlimit:4;stroke-dasharray:none;stroke-opacity:1" transform="translate(-118.17789,-95.293627)" xlink:href="#path6892"/><path d="m 2150.7629,1413.3005 c 2.1823,2.147 4.4305,4.2269 6.7416,6.2366 54.1318,45.3492 135.9992,50.2175 189.6501,2.7494 3.537,-2.814 6.9436,-5.786 10.2093,-8.9067 l -103.3415,-102.7372 z" id="path6896" style="fill:#ff7373;fill-opacity:1;fill-rule:evenodd;stroke:none;stroke-width:8.73816013;stroke-linecap:round;stroke-linejoin:round;stroke-miterlimit:4;stroke-dasharray:none;stroke-opacity:1"/><path d="m 2268.9414,1508.5938 -21.6719,21.5429 a 176.67842,175.64613 0 0 0 249.8614,0 l -21.5899,-21.4629 a 149.82319,148.77891 0 0 1 -10.209,8.9063 149.82319,148.77891 0 0 1 -12.1816,8.6504 149.82319,148.77891 0 0 1 -12.9902,7.4004 149.82319,148.77891 0 0 1 -13.67,6.0742 149.82319,148.77891 0 0 1 -14.2109,4.6894 149.82319,148.77891 0 0 1 -14.6133,3.2578 149.82319,148.77891 0 0 1 -14.8672,1.7911 149.82319,148.77891 0 0 1 -10.5976,0.373 149.82319,148.77891 0 0 1 -14.9571,-0.7422 149.82319,148.77891 0 0 1 -14.8086,-2.2226 149.82319,148.77891 0 0 1 -14.5097,-3.6797 149.82319,148.77891 0 0 1 -14.0684,-5.0996 149.82319,148.77891 0 0 1 -13.4863,-6.4688 149.82319,148.77891 0 0 1 -12.7676,-7.7734 149.82319,148.77891 0 0 1 -11.9219,-9 149.82319,148.77891 0 0 1 -6.7402,-6.2363 z" id="path7065" style="fill:#abc837;fill-rule:evenodd;stroke:none;stroke-width:8.73816013;stroke-linecap:round;stroke-linejoin:round;stroke-miterlimit:4;stroke-dasharray:none;stroke-opacity:1" transform="translate(-118.17789,-95.293627)" xlink:href="#path6892"/><path d="m 2268.9414,1508.5938 -21.6719,21.5429 a 176.67842,175.64613 0 0 0 249.8614,0 l -21.5899,-21.4629 a 149.82319,148.77891 0 0 1 -10.209,8.9063 149.82319,148.77891 0 0 1 -12.1816,8.6504 149.82319,148.77891 0 0 1 -12.9902,7.4004 149.82319,148.77891 0 0 1 -13.67,6.0742 149.82319,148.77891 0 0 1 -14.2109,4.6894 149.82319,148.77891 0 0 1 -14.6133,3.2578 149.82319,148.77891 0 0 1 -14.8672,1.7911 149.82319,148.77891 0 0 1 -10.5976,0.373 149.82319,148.77891 0 0 1 -14.9571,-0.7422 149.82319,148.77891 0 0 1 -14.8086,-2.2226 149.82319,148.77891 0 0 1 -14.5097,-3.6797 149.82319,148.77891 0 0 1 -14.0684,-5.0996 149.82319,148.77891 0 0 1 -13.4863,-6.4688 149.82319,148.77891 0 0 1 -12.7676,-7.7734 149.82319,148.77891 0 0 1 -11.9219,-9 149.82319,148.77891 0 0 1 -6.7402,-6.2363 z" id="path7067" style="fill:#abc837;fill-rule:evenodd;stroke:none;stroke-width:8.73816013;stroke-linecap:round;stroke-linejoin:round;stroke-miterlimit:4;stroke-dasharray:none;stroke-opacity:1" transform="translate(-118.17789,-95.293627)" xlink:href="#path6892"/><path d="m 2268.9414,1508.5938 -21.6719,21.5429 a 176.67842,175.64613 0 0 0 249.8614,0 l -21.5899,-21.4629 a 149.82319,148.77891 0 0 1 -10.209,8.9063 149.82319,148.77891 0 0 1 -12.1816,8.6504 149.82319,148.77891 0 0 1 -12.9902,7.4004 149.82319,148.77891 0 0 1 -13.67,6.0742 149.82319,148.77891 0 0 1 -14.2109,4.6894 149.82319,148.77891 0 0 1 -14.6133,3.2578 149.82319,148.77891 0 0 1 -14.8672,1.7911 149.82319,148.77891 0 0 1 -10.5976,0.373 149.82319,148.77891 0 0 1 -14.9571,-0.7422 149.82319,148.77891 0 0 1 -14.8086,-2.2226 149.82319,148.77891 0 0 1 -14.5097,-3.6797 149.82319,148.77891 0 0 1 -14.0684,-5.0996 149.82319,148.77891 0 0 1 -13.4863,-6.4688 149.82319,148.77891 0 0 1 -12.7676,-7.7734 149.82319,148.77891 0 0 1 -11.9219,-9 149.82319,148.77891 0 0 1 -6.7402,-6.2363 z" id="path7069" style="fill:#abc837;fill-rule:evenodd;stroke:none;stroke-width:8.73816013;stroke-linecap:round;stroke-linejoin:round;stroke-miterlimit:4;stroke-dasharray:none;stroke-opacity:1" transform="translate(-118.17789,-95.293627)" xlink:href="#path6892"/></g><g id="g7089" transform="matrix(0.39388924,0,0,0.39388924,-112.35427,630.74984)"><path d="m 1756.7535,1113.0786 c -5.4487,6.033 -10.568,25.4513 0.4884,25.5095 10.255,0.054 4.9352,-20.4482 -0.4884,-25.5095 z" id="path7017" style="fill:#000000;fill-rule:evenodd;stroke:none;stroke-width:0.98948759px;stroke-linecap:butt;stroke-linejoin:miter;stroke-opacity:1"/><path d="m 1717.7865,1166.2154 c -5.4487,6.033 -10.568,25.4513 0.4884,25.5095 10.255,0.054 4.9352,-20.4482 -0.4884,-25.5095 z" id="path7061" style="fill:#000000;fill-rule:evenodd;stroke:none;stroke-width:0.98948759px;stroke-linecap:butt;stroke-linejoin:miter;stroke-opacity:1"/><path d="m 1795.7205,1166.2154 c -5.4487,6.033 -10.568,25.4513 0.4884,25.5095 10.255,0.054 4.9352,-20.4482 -0.4884,-25.5095 z" id="path7063" style="fill:#000000;fill-rule:evenodd;stroke:none;stroke-width:0.98948759px;stroke-linecap:butt;stroke-linejoin:miter;stroke-opacity:1"/></g><path d="m 542.98294,1095.4145 c 0.37657,-0.462 3.28625,1.4689 8.05208,4.3865 4.61565,2.8257 11.45407,6.8623 19.21534,8.963 -10e-6,0 0.0276,0.01 0.0276,0.01 4.90123,1.3425 9.57874,1.7474 13.77646,1.5572 9.37461,-0.4088 15.68005,-3.1358 15.9826,-2.4464 0.15041,0.3428 -5.33575,4.7272 -15.70391,5.9131 -4.55537,0.5134 -9.72615,0.2481 -15.09648,-1.2251 0,0 -0.0302,-0.01 -0.0302,-0.01 -8.52764,-2.3769 -15.40384,-6.9679 -19.78077,-10.4741 -4.47898,-3.5879 -6.74715,-6.2999 -6.4427,-6.6734 z" id="path7094" style="opacity:1;fill:#000000;fill-opacity:1;fill-rule:evenodd;stroke:none;stroke-width:7.87778473;stroke-linecap:round;stroke-linejoin:round;stroke-miterlimit:4;stroke-dasharray:none;stroke-dashoffset:0;stroke-opacity:1"/></g></g></g></svg>