<?xml version="1.0" ?><svg enable-background="new 0 0 64 64" height="64px" id="Layer_1" version="1.1" viewBox="0 0 64 64" width="64px" xml:space="preserve" xmlns="http://www.w3.org/2000/svg" xmlns:xlink="http://www.w3.org/1999/xlink"><circle cx="32" cy="32" fill="#77B3D4" r="32"/><g opacity="0.2"><path d="M38.997,44h-10c-1.105,0-1,0.895-1,1.999c0,1.104,1.895,1.999,3,1.999h6c1.105,0,3-0.895,3-1.999   C39.997,44.895,40.102,44,38.997,44z" fill="#231F20"/><path d="M34,22c-5.121,0-9.83,0.798-13.569,2.132C18.046,22.815,15.067,22,12.814,22H7   c-1.102,0.36,3.43,5.452,5.807,7.318C12.285,30.172,12,31.071,12,32c0,0.825,0.224,1.625,0.638,2.392   c-2.14,0.995-3.581,3.69-5.456,5.608L7.15,40.237c-0.683,0.904-0.234,1.644,0.997,1.644L13.182,42c0.585,0,3.363-1.256,5.971-2.621   C23.067,41.006,28.278,42,34,42c12.15,0,22-4.477,22-10C56,26.477,46.15,22,34,22z" fill="#231F20"/></g><path d="M39.997,43.999c0,1.104-1.895,1.999-3,1.999h-6c-1.105,0-3-0.895-3-1.999l0,0c0-1.104-0.105-1.999,1-1.999  h10C40.102,42,39.997,42.895,39.997,43.999L39.997,43.999z" fill="#4F5D73"/><path d="M14,28c-1.232,0-8.35-7.559-7-8h5.814C16,20,20.662,21.607,23,24l-2.968,0.237  c0.683,0.904,0.234,1.644-0.997,1.644L14,28z" fill="#C75C5C"/><path d="M13.182,40C14.414,40,25.35,34.441,24,34l-9.631-2c-3.186,0-4.849,3.607-7.186,6L7.15,38.237  c-0.683,0.904-0.234,1.644,0.997,1.644L13.182,40z" fill="#C75C5C"/><ellipse cx="34" cy="30" fill="#FFFFFF" rx="22" ry="10"/><path d="M7.448,31.896c-0.8,0-1.448,0.076-1.448-0.724l0,0c0-0.8,0.648-0.724,1.448-0.724L19.03,29  c0.8,0,2.896,1.372,2.896,2.172l0,0c0,0.8-2.096,2.172-2.896,2.172L7.448,31.896z" fill="#231F20" opacity="0.2"/><path d="M7,31c-0.8,0-1-0.372-1-1.172l0,0C6,29.029,6.2,29,7,29l12.03-1c0.8,0,2.97,1.2,2.97,2h-0.074  c0,0.8-2.096,2-2.896,2L7,31z" fill="#C75C5C"/></svg>