<svg width="313" height="308" fill="none" xmlns="http://www.w3.org/2000/svg"><path d="M178.724 281.624l-.539.143-.438.142-.021.006-.054.017-.1.029c-.121.036-.304.09-.547.158-.645.181-1.703.464-3.129.797-2.859.669-7.15 1.53-12.504 2.188-10.785 1.326-25.413 1.765-41.16-1.543C90.287 277.27 52.835 257.226 30.5 193.5 12.243 127.046 24.945 81.92 50.312 56.601 76.146 30.817 120.244 12.951 178.724 26c29.458 6.573 64.682 17.315 87.276 46.5 23.046 29.771 29.561 78.782 23.832 99.934-4.789 17.685-12.596 44.512-32.832 66.066-20.119 21.428-50.981 35.894-78.276 43.124z" stroke="#fff" stroke-width="42"/></svg>